HIERARCHY
ROOT Hips
{
	OFFSET 0.00 0.00 0.00
	CHANNELS 6 Xposition Yposition Zposition Xrotation Yrotation Zrotation
	JOINT LeftUpLeg
	{
		OFFSET 3.44811 0.00000 0.00000
		CHANNELS 3 Xrotation Yrotation Zrotation
		JOINT LeftLeg
		{
			OFFSET 0.00000 -16.89127 0.00000
			CHANNELS 3 Xrotation Yrotation Zrotation
			JOINT LeftFoot
			{
				OFFSET 0.00000 -16.21733 0.00000
				CHANNELS 3 Xrotation Yrotation Zrotation
				JOINT LeftToeBase
				{
					OFFSET 0.00000 -1.79183 6.68720
					CHANNELS 3 Xrotation Yrotation Zrotation
					End Site
					{
						OFFSET 0.00000 0.00000 2.95275
					}
				}
			}
		}
	}
	JOINT RightUpLeg
	{
		OFFSET -3.44811 0.00000 0.00000
		CHANNELS 3 Xrotation Yrotation Zrotation
		JOINT RightLeg
		{
			OFFSET 0.00000 -16.89127 0.00000
			CHANNELS 3 Xrotation Yrotation Zrotation
			JOINT RightFoot
			{
				OFFSET 0.00000 -16.21733 0.00000
				CHANNELS 3 Xrotation Yrotation Zrotation
				JOINT RightToeBase
				{
					OFFSET 0.00000 -1.79183 6.68720
					CHANNELS 3 Xrotation Yrotation Zrotation
					End Site
					{
						OFFSET 0.00000 0.00000 2.95275
					}
				}
			}
		}
	}
	JOINT Spine
	{
		OFFSET 0.00000 0.03937 0.00000
		CHANNELS 3 Xrotation Yrotation Zrotation
		JOINT Spine1
		{
			OFFSET 0.00000 10.84478 0.00000
			CHANNELS 3 Xrotation Yrotation Zrotation
			JOINT Neck
			{
				OFFSET 0.00000 8.84498 0.00000
				CHANNELS 3 Xrotation Yrotation Zrotation
				JOINT Head
				{
					OFFSET 0.00000 5.71605 0.00000
					CHANNELS 3 Xrotation Yrotation Zrotation
					End Site
					{
						OFFSET 0.00000 4.52755 0.00000
					}
				}
			}
			JOINT LeftShoulder
			{
				OFFSET 0.00000 8.84498 0.00000
				CHANNELS 3 Xrotation Yrotation Zrotation
				JOINT LeftArm
				{
					OFFSET 6.73125 -0.00002 0.00000
					CHANNELS 3 Xrotation Yrotation Zrotation
					JOINT LeftForeArm
					{
						OFFSET 11.19281 -0.00004 0.00000
						CHANNELS 3 Xrotation Yrotation Zrotation
						JOINT LeftHand
						{
							OFFSET 9.77593 -0.00004 0.00000
							CHANNELS 3 Xrotation Yrotation Zrotation
							JOINT LeftHandThumb
							{
								OFFSET 0.00000 0.00000 0.00000
								CHANNELS 3 Xrotation Yrotation Zrotation
								End Site
								{
									OFFSET 0.00000 0.00000 3.93700
								}
							}
							JOINT L_Wrist_End
							{
								OFFSET 3.93700 -0.00001 0.00000
								CHANNELS 3 Xrotation Yrotation Zrotation
							}
						}
					}
				}
			}
			JOINT RightShoulder
			{
				OFFSET 0.00000 8.84498 0.00000
				CHANNELS 3 Xrotation Yrotation Zrotation
				JOINT RightArm
				{
					OFFSET -6.73125 -0.00002 0.00000
					CHANNELS 3 Xrotation Yrotation Zrotation
					JOINT RightForeArm
					{
						OFFSET -11.19281 -0.00004 0.00000
						CHANNELS 3 Xrotation Yrotation Zrotation
						JOINT RightHand
						{
							OFFSET -9.77593 -0.00004 0.00000
							CHANNELS 3 Xrotation Yrotation Zrotation
							JOINT RightHandThumb
							{
								OFFSET 0.00000 0.00000 0.00000
								CHANNELS 3 Xrotation Yrotation Zrotation
								End Site
								{
									OFFSET 0.00000 0.00000 3.93700
								}
							}
							JOINT R_Wrist_End
							{
								OFFSET -5.39369 -0.00002 0.00000
								CHANNELS 3 Xrotation Yrotation Zrotation
							}
						}
					}
				}
			}
		}
	}
}
MOTION
Frames: 17
Frame Time: 0.033332
 55.3308 32.9633 9.9416 104.8222 -82.7707 108.9378 -18.1687 -4.7184 -8.9364 48.7964 -0.0000 0.0000 -29.6196 4.8034 11.7995 -13.9189 0.0000 0.0000 -16.7997 1.3065 -4.8332 50.2782 -0.0000 0.0000 -34.4676 7.9988 -2.6172 -21.8210 0.0000 0.0000 -3.0526 5.3787 -2.0939 4.8851 -2.4508 2.7151 10.2410 30.4425 0.0466 -9.6531 -4.0571 -5.2910 8.2550 8.3369 -5.2926 4.1056 -36.6271 -73.0784 -0.0001 -25.0783 -0.0000 -27.8959 17.1232 5.3322 -0.0000 0.0000 -0.0000 -0.0000 0.0000 -0.0000 8.5680 0.7589 1.6099 1.7005 18.1125 76.5207 -0.0001 27.2767 0.0000 -30.1234 -2.3845 -0.5780 -0.0000 0.0000 -0.0000 -0.0000 0.0000 -0.0000
 52.1885 34.8509 9.7391 116.8970 -85.0824 121.2294 -3.9074 -4.0362 -7.1905 34.0332 0.0000 0.0000 -16.7643 1.6747 9.0185 -23.2261 -0.0000 0.0000 -2.2186 0.6244 -5.3300 34.1533 0.0000 0.0000 -22.1193 9.0500 -3.4393 -28.7970 -0.0000 -0.0000 -5.1854 5.2447 -2.7829 5.1799 -2.6757 1.6773 10.9040 31.9035 0.7526 -6.1905 -6.8129 -1.2056 8.5284 8.7984 -2.6908 6.2491 -36.1826 -74.8508 -0.0001 -25.2851 -0.0000 -26.2988 18.4087 0.8163 -0.0000 0.0000 -0.0000 -0.0000 0.0000 -0.0000 8.5063 0.4170 -0.3675 5.0714 16.9828 79.9745 -0.0001 28.1895 0.0000 -27.8117 -2.7014 0.3292 -0.0000 0.0000 -0.0000 -0.0000 0.0000 -0.0000
 49.3956 37.0056 9.6477 80.1746 -86.8853 84.3947 1.4237 -4.7046 -5.4346 28.7206 0.0000 0.0000 4.6252 -2.8192 7.4072 -25.0458 0.0000 0.0000 6.1276 -2.4154 -5.6416 24.5168 -0.0000 0.0000 -1.4918 10.7187 1.5185 -31.6429 0.0000 0.0000 -7.2638 4.3022 -2.9629 4.8793 -3.6893 1.0715 15.1673 31.6210 -0.1444 -7.9848 -9.3560 -1.0705 8.6973 9.0289 -1.8181 8.3258 -35.7269 -74.6067 -0.0001 -26.3618 -0.0000 -26.1140 21.3137 -3.8271 -0.0000 0.0000 -0.0000 -0.0000 0.0000 -0.0000 9.6196 -0.5332 -1.8769 8.3532 14.7581 82.6496 -0.0001 31.3566 0.0000 -29.6715 -2.5164 4.5091 -0.0000 0.0000 -0.0000 -0.0000 0.0000 -0.0000
 47.2174 38.9564 9.4744 69.9399 -87.5781 71.7400 0.0386 -2.5531 -1.7944 32.4936 -0.0000 0.0000 23.4767 -6.4037 -2.0047 -14.3503 -0.0000 0.0000 6.6936 1.3962 -3.1155 27.1305 -0.0000 0.0000 16.7364 13.3013 13.2356 -21.2669 0.0000 -0.0000 -8.2352 5.1217 -1.2313 6.3212 -2.9494 1.6061 18.8774 31.0599 -2.1483 -13.3822 -11.3337 -2.5712 8.7401 9.1434 -2.3165 8.0222 -35.4717 -73.2750 -0.0001 -27.6787 -0.0000 -27.0112 21.1429 -2.6592 -0.0000 0.0000 -0.0000 -0.0000 0.0000 -0.0000 10.4904 -0.4547 -1.6518 11.1293 14.9214 82.7687 -0.0001 35.2687 0.0000 -35.2920 -1.0808 4.6139 -0.0000 0.0000 -0.0000 -0.0000 0.0000 -0.0000
 45.3939 40.3800 9.2326 115.2152 -88.1137 116.0249 -3.0159 1.7475 0.5175 37.7370 -0.0000 0.0000 24.9390 -10.2128 -4.3998 -15.4099 -0.0000 -0.0000 3.1225 7.1750 -0.8651 36.9521 -0.0000 0.0000 17.5501 14.9752 13.5004 -22.6077 -0.0000 -0.0000 -7.8029 6.1864 -1.2499 7.7095 -1.7649 1.9065 19.0259 30.8670 -2.2844 -15.0971 -10.9595 -3.2931 8.9851 10.3142 -1.1481 4.8842 -33.1130 -75.3450 -0.0001 -29.3861 -0.0000 -28.0224 19.6576 0.7312 -0.0000 0.0000 -0.0000 -0.0000 0.0000 -0.0000 10.1670 0.9361 -2.2382 12.1059 15.2027 83.3969 -0.0002 36.3851 0.0001 -40.7489 0.2294 1.8373 -0.0000 0.0000 -0.0000 -0.0000 0.0000 -0.0000
 43.5966 41.3942 9.0493 114.8217 -87.9844 115.4782 -4.4027 2.8147 1.3694 35.1892 -0.0000 0.0000 21.2923 -8.1931 -3.7172 -15.9937 0.0000 -0.0000 1.4881 6.6779 -0.3189 38.2981 -0.0000 0.0000 15.0709 11.2929 12.8981 -21.6783 0.0000 0.0000 -7.0696 5.8098 -2.1406 7.7926 -2.0227 1.7838 17.9219 30.7113 -1.4183 -12.9714 -9.7380 -3.3807 9.5771 11.1989 -0.4429 3.9190 -31.4640 -76.2727 -0.0001 -31.6513 -0.0000 -30.7689 18.9967 4.1590 -0.0000 0.0000 -0.0000 -0.0000 0.0000 -0.0000 10.0430 1.1700 -2.6684 10.6036 15.4599 83.4196 -0.0001 34.3002 0.0000 -37.7864 -1.2577 4.5848 -0.0000 0.0000 -0.0000 -0.0000 0.0000 -0.0000
 41.9679 42.0970 8.9168 83.5123 -86.4596 83.7522 -6.7042 2.0250 2.0200 29.2155 -0.0000 0.0000 16.2152 -3.9576 -2.9232 -15.6497 0.0000 -0.0000 0.1766 3.1863 -0.1375 31.8038 0.0000 0.0000 8.8770 4.8033 8.3468 -23.3024 0.0000 0.0000 -6.8035 5.0270 -2.5978 6.8749 -2.7263 1.7201 18.0803 30.9877 -1.2856 -11.5357 -8.9832 -3.4271 9.1496 10.4095 -0.4733 4.7649 -31.4244 -75.7582 -0.0001 -32.1691 -0.0000 -30.3798 19.0701 3.7054 -0.0000 0.0000 -0.0000 -0.0000 0.0000 -0.0000 9.7297 0.2541 -2.1020 8.7769 15.4451 82.5813 -0.0001 31.9710 0.0000 -33.7487 -2.4910 6.5939 -0.0000 0.0000 -0.0000 -0.0000 0.0000 -0.0000
 40.5098 42.3592 8.8054 88.5936 -84.3760 88.2333 -9.5574 2.8694 2.8866 22.8211 -0.0000 0.0000 11.8477 -1.6499 -0.0539 -16.2289 0.0000 -0.0000 -1.7263 1.2161 0.3061 22.3801 -0.0000 0.0000 1.5427 0.5491 5.4039 -23.0612 -0.0000 -0.0000 -6.4596 5.1068 -2.6348 6.5662 -2.5837 1.6466 17.9149 31.2747 -1.2011 -11.7486 -8.2012 -4.1016 8.8089 9.9176 -0.2840 3.9615 -34.0635 -75.5210 -0.0001 -31.2076 -0.0000 -28.2900 19.9385 3.4066 -0.0000 0.0000 -0.0000 -0.0000 0.0000 -0.0000 9.1551 0.1707 -1.4836 7.4440 14.8365 81.8351 -0.0001 31.5126 0.0000 -32.2327 -3.3237 7.1451 -0.0000 0.0000 -0.0000 -0.0000 0.0000 -0.0000
 39.2053 42.1644 8.6733 94.5492 -82.4013 93.5650 -13.1607 4.9117 4.0276 17.4885 -0.0000 0.0000 10.5096 -2.1572 -1.0143 -16.8726 -0.0000 0.0000 -5.3082 -0.1722 0.8007 15.4634 0.0000 0.0000 -2.7675 1.4462 4.6794 -24.4497 0.0000 -0.0000 -5.4710 4.9903 -3.0618 6.7292 -2.4822 2.1044 17.3595 32.0072 -1.2910 -13.1459 -7.2320 -5.1653 8.7649 10.0626 -0.1215 1.8144 -36.7259 -76.0901 -0.0001 -30.2991 -0.0000 -25.6019 20.4153 4.3745 -0.0000 0.0000 -0.0000 -0.0000 0.0000 -0.0000 8.6804 0.9155 -1.4192 5.8555 16.8330 80.9044 -0.0001 31.3488 0.0000 -32.0693 -2.6866 6.8409 -0.0000 0.0000 -0.0000 -0.0000 0.0000 -0.0000
 37.9921 41.5504 8.5521 93.6917 -80.5425 92.1954 -17.8986 6.8122 4.9082 14.1931 0.0000 0.0000 11.4205 -3.5933 -3.4368 -16.9808 -0.0000 -0.0000 -10.1133 -1.7177 1.3223 11.3375 0.0000 0.0000 -5.4070 3.0797 5.0017 -25.6457 0.0000 -0.0000 -4.1653 4.5888 -3.5224 7.1468 -2.6737 2.4135 15.9629 32.1879 -0.5997 -13.8327 -5.9937 -6.2624 8.2659 9.6057 -0.0045 0.2736 -38.8028 -76.0976 -0.0001 -30.3087 -0.0000 -23.8670 21.2558 5.3558 -0.0000 -0.0000 0.0000 -0.0000 -0.0000 0.0000 8.1259 1.4845 -1.3518 3.9880 19.2079 80.2540 -0.0001 30.8559 0.0000 -30.4936 -3.0508 6.1529 -0.0000 0.0000 -0.0000 -0.0000 0.0000 -0.0000
 36.8111 40.5061 8.4385 91.0567 -78.1915 89.1159 -24.0619 8.1230 5.4420 13.2976 -0.0000 0.0000 10.9819 -5.1256 -5.9015 -17.4888 0.0000 -0.0000 -16.3485 -2.4643 1.7377 9.7669 0.0000 0.0000 -7.9422 3.2533 5.0037 -26.6300 0.0000 -0.0000 -3.2763 4.1491 -3.8203 7.4490 -2.9942 2.5000 15.5196 32.3766 -0.0311 -15.7090 -5.1578 -7.5339 7.8593 8.8033 0.0222 -0.7075 -41.7481 -75.1318 -0.0001 -30.3075 -0.0000 -23.4207 21.6178 6.8930 -0.0000 0.0000 -0.0000 -0.0000 0.0000 -0.0000 7.5573 1.7077 -1.2329 2.0717 20.6817 80.0510 -0.0001 29.6796 0.0000 -28.8179 -2.1831 5.9931 -0.0000 0.0000 -0.0000 -0.0000 0.0000 -0.0000
 35.6450 39.0182 8.3499 89.3902 -75.2847 86.8416 -32.0470 9.6808 6.0148 16.0985 -0.0000 0.0000 10.9994 -7.1701 -8.7959 -17.0965 0.0000 0.0000 -24.0094 -3.4528 2.0799 11.1037 -0.0000 0.0000 -10.3775 2.9015 5.1770 -26.6997 0.0000 -0.0000 -2.7690 3.7682 -3.8241 7.3333 -3.3022 2.6849 15.1440 32.8010 0.3182 -17.4210 -4.5860 -8.6813 7.4749 8.0760 -0.5266 -0.4724 -45.0698 -72.7628 -0.0001 -30.6412 -0.0000 -22.9910 21.5793 8.7322 -0.0000 0.0000 -0.0000 -0.0000 0.0000 -0.0000 6.8969 1.9736 -1.0028 1.0535 20.2969 79.8843 -0.0001 29.7011 0.0000 -28.5847 -1.4038 5.5623 -0.0000 0.0000 -0.0000 -0.0000 0.0000 -0.0000
 34.2712 37.0530 8.3274 88.4968 -73.7762 85.3957 -39.6038 11.4420 6.5147 25.5739 0.0000 0.0000 9.4904 -7.7295 -9.0751 -14.8909 -0.0000 -0.0000 -30.6326 -4.7694 2.0084 15.5332 -0.0000 0.0000 -14.3995 3.6762 5.6622 -27.4389 0.0000 0.0000 -2.1391 3.7449 -3.4986 7.7290 -3.2570 2.8648 15.6911 33.3193 0.0251 -19.3477 -4.7569 -9.3691 7.3894 7.1377 -1.5373 0.1270 -47.3324 -69.7927 -0.0001 -30.7950 -0.0000 -24.8034 20.7003 10.9845 -0.0000 0.0000 -0.0000 -0.0000 0.0000 -0.0000 6.7741 2.3945 -0.5506 0.7776 19.4002 79.1032 -0.0001 30.3989 0.0000 -29.9902 -0.7037 5.6035 -0.0000 0.0000 -0.0000 -0.0000 0.0000 -0.0000
 32.7162 34.6549 8.3962 92.8501 -72.9107 88.8591 -48.0173 10.9179 7.6820 45.6908 -0.0000 0.0000 -5.2924 -7.2058 3.1727 -21.8351 -0.0000 -0.0000 -38.8294 -1.5912 2.2391 28.1905 -0.0000 0.0000 -17.0029 9.4119 10.7382 -24.8351 0.0000 0.0000 -2.0004 4.3103 -2.8741 7.6806 -2.6427 3.3229 15.9282 33.6436 -0.1446 -19.4152 -4.6556 -9.7713 7.0329 6.9258 -2.6462 0.4190 -46.8447 -68.4268 -0.0001 -30.9371 -0.0000 -28.2776 18.8519 12.6877 -0.0000 -0.0000 0.0000 -0.0000 -0.0000 0.0000 6.7425 3.0675 -0.1773 1.7036 20.0147 77.2359 -0.0001 31.2246 0.0000 -33.0393 -0.5989 6.0164 -0.0000 -0.0000 0.0000 -0.0000 -0.0000 0.0000
 31.1132 32.2721 8.4208 93.5176 -72.9992 89.8685 -52.9930 7.8224 7.2918 62.9290 -0.0000 0.0000 -19.0519 -4.6218 6.1443 -18.4703 -0.0000 -0.0000 -50.6619 -0.5958 2.0371 55.6369 -0.0000 0.0000 -25.0586 15.1079 6.9470 -29.2040 0.0000 -0.0000 -1.2275 4.3978 -3.2227 7.8742 -2.5124 3.3909 12.4242 33.5681 0.7783 -16.3505 -4.6943 -8.6556 7.5947 7.8708 -3.4230 -1.9609 -43.7656 -68.9238 -0.0001 -31.9968 -0.0000 -28.3832 17.9401 12.9873 -0.0000 0.0000 -0.0000 -0.0000 0.0000 -0.0000 7.5438 2.4211 0.7261 0.7985 20.9369 75.3886 -0.0001 31.6727 0.0000 -36.8874 -1.5311 6.5114 -0.0000 0.0000 -0.0000 -0.0000 0.0000 -0.0000
 29.2030 30.6443 8.4760 94.0292 -73.4854 91.5139 -52.8788 8.7760 5.7893 72.0655 -0.0000 0.0000 -28.9581 -0.0404 11.0466 -13.1198 0.0000 -0.0000 -54.2270 2.9992 3.1376 68.6401 -0.0000 0.0000 -27.8478 15.1962 1.2078 -25.1162 0.0000 0.0000 -1.6677 4.4130 -3.3558 9.0718 -2.7245 2.4778 13.2738 34.0251 0.5559 -19.3018 -4.1250 -10.6583 8.3207 7.7752 -4.1207 -2.6435 -39.8320 -68.4886 -0.0001 -33.3559 -0.0000 -29.3486 16.3078 15.5586 -0.0000 -0.0000 0.0000 -0.0000 -0.0000 0.0000 7.3278 2.4066 1.3311 -0.0130 20.0935 75.3989 -0.0001 31.1542 0.0000 -34.4237 -1.2407 6.1967 -0.0000 0.0000 -0.0000 -0.0000 0.0000 -0.0000
 26.9541 29.9198 8.4072 80.1191 -75.1628 77.5505 -48.4526 5.1286 3.3495 76.6010 -0.0000 0.0000 -34.1447 0.6340 11.4252 -13.8890 -0.0000 0.0000 -49.5396 5.4834 5.1573 73.5533 -0.0000 0.0000 -34.7709 8.5614 -0.9170 -21.1110 0.0000 0.0000 -1.0375 3.3528 -2.9634 8.8502 -3.6169 3.3841 12.5853 33.5155 0.9563 -18.4241 -5.0649 -11.4823 8.1330 7.1428 -3.5514 -1.8453 -38.9746 -69.4556 -0.0001 -32.3442 -0.0000 -30.7995 14.0987 17.2960 -0.0000 0.0000 -0.0000 -0.0000 0.0000 -0.0000 7.5514 1.4630 0.9740 1.8349 19.9416 75.7668 -0.0001 32.4823 0.0000 -33.6507 -0.4913 3.0685 -0.0000 0.0000 -0.0000 -0.0000 0.0000 -0.0000
